<?xml version="1.0" encoding="UTF-8" standalone="no"?>
<svg
   xmlns:dc="http://purl.org/dc/elements/1.1/"
   xmlns:cc="http://creativecommons.org/ns#"
   xmlns:rdf="http://www.w3.org/1999/02/22-rdf-syntax-ns#"
   xmlns:svg="http://www.w3.org/2000/svg"
   xmlns="http://www.w3.org/2000/svg"
   xmlns:xlink="http://www.w3.org/1999/xlink"
   xmlns:sodipodi="http://sodipodi.sourceforge.net/DTD/sodipodi-0.dtd"
   xmlns:inkscape="http://www.inkscape.org/namespaces/inkscape"
   viewBox="0 0 515.33006 515.33006"
   version="1.1"
   width="515.33008pt"
   height="515.33008pt"
   id="svg13"
   sodipodi:docname="AkaNamen-logo.svg"
   inkscape:version="0.92.4 (5da689c313, 2019-01-14)"
   inkscape:export-filename="E:\Seafile\NextCloud-Data\Braunschweig\AkaBlas\AkaNamen\Logo\AkaNamen_Icon.png"
   inkscape:export-xdpi="158"
   inkscape:export-ydpi="158">
  <metadata
     id="metadata17">
    <rdf:RDF>
      <cc:Work
         rdf:about="">
        <dc:format>image/svg+xml</dc:format>
        <dc:type
           rdf:resource="http://purl.org/dc/dcmitype/StillImage" />
        <dc:title></dc:title>
      </cc:Work>
    </rdf:RDF>
  </metadata>
  <sodipodi:namedview
     pagecolor="#ffffff"
     bordercolor="#666666"
     borderopacity="1"
     objecttolerance="10"
     gridtolerance="10"
     guidetolerance="10"
     inkscape:pageopacity="0"
     inkscape:pageshadow="2"
     inkscape:window-width="1822"
     inkscape:window-height="1051"
     id="namedview15"
     showgrid="false"
     fit-margin-top="0"
     fit-margin-left="0"
     fit-margin-right="0"
     fit-margin-bottom="0"
     inkscape:zoom="0.88305871"
     inkscape:cx="219.43244"
     inkscape:cy="254.47619"
     inkscape:window-x="-9"
     inkscape:window-y="-9"
     inkscape:window-maximized="1"
     inkscape:current-layer="Hintergrund" />
  <defs
     id="defs7">
    <radialGradient
       gradientTransform="matrix(0.59628533,-1.1925693,1.1925693,0.59628533,-129.12413,546.97867)"
       cy="283.465"
       gradientUnits="userSpaceOnUse"
       r="316.923"
       cx="283.465"
       fy="283.465"
       id="Grad0"
       fx="283.465">
      <stop
         stop-opacity="1"
         stop-color="#476990"
         offset="0%"
         id="stop2"
         style="stop-color:#54698e;stop-opacity:1" />
      <stop
         stop-opacity="1"
         stop-color="#001345"
         offset="80%"
         id="stop4"
         style="stop-color:#001a46;stop-opacity:1" />
    </radialGradient>
    <radialGradient
       inkscape:collect="always"
       xlink:href="#Grad0"
       id="radialGradient4528"
       cx="91.285599"
       cy="-275.05643"
       fx="91.285599"
       fy="-275.05643"
       r="257.66513"
       gradientUnits="userSpaceOnUse"
       gradientTransform="translate(192.17924,558.52127)" />
  </defs>
  <g
     inkscape:label="Hintergrund"
     id="Hintergrund"
     inkscape:groupmode="layer"
     transform="translate(-25.799804,-25.799804)">
    <rect
       style="opacity:1;fill:url(#radialGradient4528);fill-opacity:1;stroke:none;stroke-width:5.6289072;stroke-linecap:round;stroke-linejoin:miter;stroke-miterlimit:4;stroke-dasharray:none;stroke-dashoffset:0;stroke-opacity:1;paint-order:markers fill stroke"
       id="rect4520"
       width="515.33026"
       height="515.33026"
       x="25.799711"
       y="25.799711" />
    <path
       d="M 236.827,2.95719e-4 C 226.471,0.0239076 216.387,0.693555 206.662,2.00686 161.087,8.16174 118.38,27.3527 83.5474,57.3276 68.3397,70.4144 53.1926,87.1935 41.6007,103.793 15.9508,140.522 2.21322,181.739 0.129725,228.229 c -0.242022,5.401 -0.12433924,23.006 0.179098,27.213 0.589542,8.123 1.108627,13.294 1.923237,19.17 6.08356,43.892 23.77844,83.166 53.07104,117.798 10.2501,12.12 23.2009,24.8 35.2894,34.554 38.4865,31.054 83.2995,48.183 133.2895,50.95 1.931,0.107 3.996,0.224 4.59,0.258 0.467,0.025 5.237,0.02 9.768,0.011 0.29,0.009 0.58,0.017 0.869,0.026 0.146,-0.009 0.292,-0.017 0.439,-0.026 0.653,-10e-4 0.668,0.005 1.343,0.004 11.382,-0.047 14.552,-0.176 22.411,-0.903 33.879,-3.138 64.732,-12.742 93.061,-28.969 18.871,-10.808 35.294,-23.488 51.754,-39.957 14.475,-14.481 25.865,-28.696 35.846,-44.737 7.608,-12.228 14.551,-26.296 19.457,-39.42 8.671,-23.192 13.338,-46.375 14.618,-72.621 0.238,-4.853 0.238,-19.265 0,-24.138 C 476.994,205.93 473.729,186.693 467.865,167.51 457.956,135.094 441.076,105.889 416.69,78.9758 413.112,75.0256 402.84,64.7621 399.134,61.4318 381.748,45.809 365.114,34.3681 345.607,24.6143 318.467,11.0436 288.078,2.94053 255.743,0.6556 249.353,0.204036 243.041,-0.0134946 236.827,6.47385e-4 V 2.95719e-4 M 239,4.4329 c 11.49,5.8e-4 13.657,0.07323 21.511,0.73101 50.084,4.1945 94.094,22.90759 132.206,56.21119 6.231,5.4454 15.324,14.3431 20.628,20.1859 38.194,42.086 58.086,91.063 60.754,149.581 0.228,4.96 0.124,16.235 -0.189,20.698 -1.407,20.051 -4.146,36.38 -8.932,53.23 -8.641,30.436 -23.43,58.323 -44.076,83.119 -8.792,10.558 -19.551,21.443 -30.339,30.685 -8.793,7.534 -18.023,14.365 -27.584,20.427 -6.42,-25.683 -16.151,-44.876 -29.404,-58.285 -11.93,-12.067 -21.738,-16.566 -37.61,-17.245 -9.738,-0.415 -13.606,-0.006 -20.723,2.199 -11.714,3.626 -27.565,3.679 -38.115,0.124 -6.275,-2.113 -10.81,-2.562 -25.885,-2.562 -20.492,0 -23.951,0.913 -41.83,11.061 -5.036,2.858 -8.752,4.506 -8.256,3.662 4.205,-7.169 17.033,-26.8 25.411,-38.892 5.62,-8.114 10.217,-15.896 10.217,-17.297 0,-3.132 -8.732,-12.808 -14.909,-16.519 -2.507,-1.507 -4.781,-2.908 -5.051,-3.118 -0.271,-0.209 0.293,-1.329 1.256,-2.492 2.477,-2.994 11.091,-6.678 15.685,-6.711 7.832,-0.056 10.822,-9.052 4.079,-12.274 -1.273,-0.607 -2.477,-0.927 -3.962,-0.966 -1.484,-0.038 -3.249,0.203 -5.639,0.717 -13.348,2.862 -26.211,14.197 -31.286,27.567 -1.18,3.108 -8.472,15.259 -16.203,27.003 -16.601,25.218 -25.297,40.229 -30.866,53.272 -3.451,8.082 -4.066,11.078 -4.114,19.774 -0.041,9.425 0.262,10.686 3.775,15.689 5.261,7.491 11.961,11.07 20.787,11.093 8.977,0.027 18.106,-3.152 35.868,-12.481 l 14.222,-7.47 0.089,52.056 C 144.682,458.348 112.518,441.217 83.9763,415.766 63.2148,397.253 45.8592,375.83 33.1447,353.017 16.6482,323.422 7.15789,290.605 4.55707,254.181 3.65655,241.561 3.76369,230.864 4.91766,218.182 9.1904,171.231 25.6875,129.704 54.2652,93.9659 71.082,72.9355 92.2642,53.8029 114.323,39.7196 145.408,19.8728 179.515,8.43037 217.311,5.16636 224.708,4.52765 227.503,4.43238 239,4.4329 v 0 m -13.994,1.7392 c -0.615,0.01973 -1.204,0.06381 -1.753,0.13739 -2.79,0.37266 -11.359,2.59846 -13.101,3.40233 -5.956,2.75218 -12.283,7.34208 -14.921,10.82028 -2.027,2.675 -2.552,4.3762 -2.505,8.5513 0.037,6.4079 0.983,9.6399 4.56,15.5889 2.75,4.5718 4.167,7.5209 5.62,11.6887 0.928,2.6566 1.266,4.4398 2.003,10.5652 1.107,9.2091 0.822,11.3916 -2.748,21.0249 -0.936,2.5261 -2.361,5.8604 -3.657,8.5512 -1.169,2.4255 -2.37,5.1797 -2.67,6.1207 -1.565,4.93 -0.931,9.778 1.953,14.939 0.64,1.146 0.693,1.19 2.607,2.183 3.649,1.89 3.509,1.867 10.979,1.867 7.276,0 7.526,-0.035 10.275,-1.355 1.774,-0.852 2.654,-1.753 3.02,-3.093 0.157,-0.573 0.339,-2.779 0.468,-5.541 0.119,-2.525 0.29,-4.843 0.386,-5.149 0.279,-0.912 0.803,-1.064 3.654,-1.06 2.818,0.004 3.871,0.228 5.777,1.224 2.123,1.11 5.349,4.888 7.011,8.213 0.324,0.649 1.015,2.354 1.536,3.79 1.628,4.49 3.919,8.727 5.71,10.565 1.792,1.84 3.837,2.883 6.667,3.397 0.866,0.158 2.45,0.494 3.518,0.746 1.069,0.252 2.648,0.559 3.51,0.685 h -0.021 c 2.202,0.319 6.825,0.32 9.253,0 5.677,-0.75 9.097,-2.266 11.262,-4.992 0.911,-1.148 2.818,-4.746 3.557,-6.709 0.628,-1.671 0.772,-3.249 0.819,-7.872 l 0.047,-4.268 -0.541,-1.131 c -1.003,-2.107 -3.405,-4.47 -5.597,-5.512 -1.78,-0.846 -3.269,-0.922 -7.865,-0.407 -3.078,0.344 -3.912,0.368 -8.626,0.24 l -5.222,-0.142 -0.966,-0.53 c -1.078,-0.592 -1.622,-1.216 -2.207,-2.529 -0.32,-0.7237 -0.412,-1.3284 -0.479,-3.2308 l -0.077,-2.3402 0.509,-0.5103 c 0.802,-0.7989 2.772,-1.8691 6.193,-3.3654 1.731,-0.7579 3.959,-1.7878 4.95,-2.2863 0.99,-0.4984 2.989,-1.4383 4.444,-2.0899 5.799,-2.5975 8.872,-4.3158 10.465,-5.8506 1.83,-1.764 4.625,-5.6127 5.836,-8.036 0.78,-1.5626 1.4,-3.3822 1.747,-5.1317 0.167,-0.8415 0.872,-3.8773 1.564,-6.7483 1.642,-6.8022 2.131,-9.6999 2.26,-13.3199 0.136,-3.9164 -0.31,-5.587 -2.051,-7.6951 -1.705,-2.0626 -5.414,-4.3215 -8.063,-4.9111 -2.922,-0.6498 -6.764,-0.1082 -10.877,1.5307 -5.709,2.2741 -10.449,5.4086 -13.624,9.01 -2.418,2.7437 -3.839,5.2973 -6.555,11.7917 -2.115,5.0561 -2.56,5.9221 -4.756,9.2626 -3.508,5.3352 -5.697,7.4715 -9.518,9.2774 -1.866,0.8815 -3.853,1.4387 -4.523,1.2707 -0.814,-0.2046 -0.898,-0.6338 -0.97,-4.9576 -0.072,-4.4952 0.118,-6.8758 0.784,-9.8196 1.142,-5.0601 4.238,-15.8249 6.988,-24.2996 1.747,-5.3813 1.802,-5.7321 1.693,-11.4139 -0.1,-5.2373 -0.367,-7.3334 -1.396,-11.0435 -0.935,-3.3665 -2.072,-5.2019 -4.028,-6.50054 -2.435,-1.616 -8.003,-2.74081 -12.307,-2.60266 h -0.001 m -46.038,14.4286 c -0.518,-0.0293 -1.057,-0.0279 -1.62,0.0026 -2.972,0.1609 -4.561,0.8262 -8.19,3.4319 -4.668,3.351 -9.906,5.0506 -21.427,6.9494 -6,0.9887 -8.967,1.727 -13.492,3.3606 -4.717,1.7026 -7.116,3.2032 -9.395,5.8775 -4.506,5.286 -6.511,10.0501 -7.177,17.0387 -0.375,3.932 -0.081,7.1629 0.998,10.9454 0.988,3.4865 1.087,4.4867 1.035,11.014 -0.038,5.0035 -0.108,6.4145 -0.407,8.2815 -0.681,4.2373 -1.88,9.1167 -4.126,16.8027 -1.176,4.026 -1.475,5.977 -1.575,10.286 -0.08,3.59 -0.065,3.834 0.319,4.859 0.508,1.361 1.525,2.381 4.312,4.32 3.56,2.477 5.755,3.382 8.964,3.69 v 0 c 6.753,0.644 12.408,-0.8 22.887,-5.846 5.436,-2.618 7.035,-3.065 11.7,-3.27 3.124,-0.137 4.801,0.085 8.37,1.109 3.659,1.05 5.841,1.391 9,1.401 3.731,0.013 5.894,-0.648 7.904,-2.417 1.525,-1.343 1.569,-1.698 0.998,-8.261 -0.412,-4.74 -0.719,-7.263 -1.253,-10.2713 -1.952,-11.0093 -2.467,-15.0946 -3.175,-25.3618 -0.41,-5.982 -0.41,-14.5166 0,-18.8097 0.864,-8.9667 1.938,-14.7919 3.79,-20.5711 0.72,-2.2492 0.825,-2.7641 0.825,-4.1505 0,-1.9201 -0.299,-3.0078 -1.413,-5.1588 -1.74,-3.3598 -4.243,-5.0464 -7.861,-5.2519 l 0.009,-2e-4 m 169.347,17.1198 c -0.412,0.0075 -0.784,0.0374 -1.107,0.0956 -1.373,0.2492 -4.173,1.2103 -6.596,2.2617 -3.296,1.4305 -3.797,1.5142 -12.149,2.068 -4.447,0.2947 -12.734,1.0552 -13.861,1.2707 -2.571,0.4922 -5.406,1.7479 -8.097,3.5912 -1.952,1.338 -2.691,2.0497 -3.399,3.2698 -0.305,0.525 -1.084,1.6823 -1.73,2.5733 -2.47,3.4022 -4.865,8.8876 -6.039,13.8374 -0.819,3.4512 -0.894,4.7579 -0.894,16.9431 0,11.9098 -0.043,12.7817 -0.899,21.6897 -0.504,5.236 -0.653,9.946 -0.379,11.883 0.921,6.513 4.063,10.937 8.496,11.955 2.61,0.601 8.962,1.524 12.311,1.791 1.548,0.123 7.144,-0.038 8.37,-0.24 1.937,-0.32 5.052,-1.06 9.989,-2.375 8.524,-2.27 13.119,-3.732 19.44,-6.181 5.237,-2.03 6.387,-2.3 9.81,-2.323 3.205,-0.021 3.672,0.117 4.592,1.373 0.765,1.048 2.497,2.052 6.432,3.731 4.814,2.055 6.492,2.317 12.918,2.002 4.059,-0.199 4.962,-0.379 7.02,-1.391 3.061,-1.505 5.744,-5.394 6.564,-9.515 0.233,-1.152 0.28,-2.398 0.233,-6.233 l -0.059,-4.793 -0.758,-1.507 c -1.605,-3.182 -3.16,-4.5903 -9.343,-8.4699 -5.31,-3.3311 -6.981,-4.4958 -8.738,-6.0834 -7.83,-7.0769 -11.64,-16.4398 -13.735,-33.7538 -0.479,-3.9524 -0.958,-6.2703 -1.705,-8.2445 -0.949,-2.5131 -3.552,-5.439 -5.849,-6.579 -3.152,-1.5631 -7.959,-2.6996 -10.838,-2.6469 v 0 m -248.18,31.7127 c -3.7888,-0.0025 -4.5475,0.0479 -6.1647,0.3974 -6.7316,1.4537 -12.0201,4.6552 -18.6554,11.2987 -3.4609,3.4654 -7.4022,8.2027 -9.5717,11.5021 -0.7157,1.089 -2.4362,4.0861 -3.8242,6.6601 -1.3876,2.5735 -2.9783,5.4905 -3.5323,6.4805 -1.6448,2.939 -2.5455,5.647 -3.5937,10.799 -1.1733,5.768 -1.7387,10.97 -2.09,19.17 -0.2254,5.299 -0.5367,8.327 -1.1823,11.51 -2.3227,11.457 -5.9713,19.902 -13.7124,31.727 -3.2516,4.967 -6.6311,10.409 -8.3747,13.487 -1.6575,2.926 -5.0476,9.745 -5.978,12.022 -1.6178,3.964 -1.7123,4.59 -1.7123,13.799 -0.0137,6.666 0.0176,7.478 0.3214,8.554 0.5131,1.815 2.8193,5.979 4.0256,7.269 1.5066,1.613 4.5205,3.708 6.2551,4.352 0.4888,0.181 1.5996,0.225 4.5184,0.178 4.3767,-0.074 4.4645,-0.092 9.2602,-1.857 3.103,-1.144 8.3522,-3.638 10.9895,-5.223 0.9902,-0.597 2.8929,-1.747 4.2291,-2.556 1.3366,-0.81 2.8366,-1.603 3.3313,-1.757 1.2611,-0.395 15.5543,-0.363 17.9021,0.039 4.0818,0.7 15.9052,4.213 22.058,6.554 3.954,1.506 4.384,1.618 7.273,1.894 3.751,0.36 11.15,0.357 13.224,-0.005 5.074,-0.884 9.932,-3.448 13.808,-7.288 2.968,-2.94 4.187,-5.214 5.551,-10.365 0.391,-1.476 0.921,-3.291 1.178,-4.034 0.842,-2.435 1.332,-4.534 1.967,-8.409 0.944,-5.759 1.748,-7.897 5.593,-14.902 0.815,-1.485 2.11,-3.87 2.88,-5.303 0.769,-1.432 1.861,-3.296 2.426,-4.142 3.959,-5.919 6.176,-10.727 7.325,-15.885 0.442,-1.992 0.5,-2.561 0.5,-5.809 0.013,-3.16 -0.042,-3.798 -0.397,-5.219 -0.823,-3.266 -2.393,-6.341 -5.105,-10.001 -0.693,-0.935 -1.753,-2.416 -2.358,-3.292 -1.19,-1.726 -2.376,-2.789 -5.04,-4.519 -4.213,-2.735 -8.553,-3.963 -13.995,-3.959 -4.424,0.002 -6.66,0.634 -11.853,3.338 -5.775,3.007 -7.117,4.01 -13.622,10.176 -5.021,4.76 -6.838,6.323 -10.526,9.061 -5.27,3.913 -8.3525,5.768 -11.7888,7.092 -4.0804,1.572 -8.6494,2.104 -10.3346,1.202 -0.637,-0.341 -1.2218,-1.236 -2.0604,-3.152 -1.2861,-2.937 -1.6388,-4.337 -1.6388,-6.668 -0.0125,-2.436 0.4758,-4.861 1.7024,-8.549 1.0311,-3.098 1.7398,-4.699 3.2479,-7.322 2.3877,-4.153 5.342,-8.064 8.7917,-11.644 1.1568,-1.201 2.6986,-2.873 3.4269,-3.714 0.7276,-0.842 2.1816,-2.383 3.2329,-3.427 1.051,-1.044 2.6588,-2.908 3.5718,-4.141 0.913,-1.233 2.559,-3.416 3.655,-4.852 2.281,-2.987 3.752,-5.362 5.536,-8.929 3.077,-6.1497 4.164,-10.8285 3.908,-16.8104 -0.203,-4.7083 -0.621,-6.7121 -1.712,-8.1908 -0.292,-0.3958 -0.906,-1.2787 -1.362,-1.9623 -1.597,-2.3943 -3.439,-3.7482 -5.943,-4.3665 -0.994,-0.2453 -2.104,-0.3074 -5.561,-0.3089 v 1e-4 m 47.642,3.503 c 0.553,0.0296 1.116,0.1523 1.686,0.3654 0.8,0.3002 1.061,0.4973 1.246,0.9444 0.375,0.9103 2.025,9.5181 2.352,12.2651 0.365,3.051 0.283,4.3059 -0.35,5.3869 -0.969,1.6535 -1.965,2.1552 -5.584,2.8088 v 0 c -4.064,0.734 -6.222,0.3409 -7.872,-1.4326 -1.275,-1.3707 -1.493,-2.2256 -1.493,-5.5929 0.012,-2.5701 0.042,-2.9025 0.503,-4.229 0.273,-0.7921 1.201,-2.7365 2.062,-4.3198 1.199,-2.2049 1.82,-3.1347 2.647,-3.9715 1.557,-1.5753 3.146,-2.3139 4.806,-2.2248 h -0.003 m 179.582,12.7581 c 0.958,0.005 1.876,0.0991 2.137,0.2821 0.216,0.1512 0.963,1.3864 1.663,2.7449 1.204,2.3399 5.216,8.3467 6.417,9.6061 0.284,0.2993 1.182,0.9145 1.996,1.3688 1.813,1.0208 2.163,1.5528 1.86,2.9608 -0.316,1.471 -0.681,2.038 -2.279,3.552 -2.771,2.622 -5.827,4.318 -8.927,4.95 v 0.003 c -1.822,0.369 -8.531,0.385 -9.55,0.022 -1.126,-0.402 -1.645,-0.917 -1.924,-1.906 -0.245,-0.86 0.075,-8.94 0.435,-11.1125 0.42,-2.5251 1.234,-4.8247 2.8,-7.906 1.633,-3.2138 2.15,-3.9587 2.984,-4.3075 0.43,-0.1795 1.428,-0.2626 2.388,-0.2576 v -1e-4 m 90.783,31.0137 c -3.92,-0.137 -6.068,0.264 -8.965,1.68 -1.896,0.927 -3.81,2.568 -6.873,5.897 -1.512,1.642 -3.446,3.549 -4.3,4.237 -2.812,2.262 -5.94,3.708 -9.837,4.55 -1.633,0.352 -2.38,0.395 -6.785,0.405 -3.564,0.006 -6.036,-0.09 -8.822,-0.346 -5.364,-0.491 -17.311,-0.513 -20.698,-0.035 -4.48,0.633 -7.75,1.626 -11.183,3.396 -3.641,1.876 -5.62,3.751 -7.087,6.718 -1.077,2.178 -1.502,4.061 -1.735,7.651 -0.256,3.964 -0.085,12.58 0.305,15.391 0.251,1.667 0.279,2.941 0.202,5.58 -0.11,3.909 -0.393,5.528 -1.644,9.435 -1.536,4.791 -1.74,7.41 -0.734,9.466 0.985,2.015 2.777,2.949 8.281,4.329 5.841,1.466 7.452,1.549 17.195,0.874 6.049,-0.42 7.956,-0.756 16.741,-2.957 9.937,-2.488 16.302,-3.944 19.169,-4.382 3.48,-0.531 7.132,-0.652 15.842,-0.513 9.816,0.156 9.378,0.077 10.548,1.888 1.065,1.649 1.444,2.845 1.553,4.899 0.118,2.238 -0.238,4.132 -1.136,6.029 -0.71,1.502 -2.726,4.595 -3.357,5.153 -0.968,0.852 -6.146,3.674 -7.966,4.339 -1.096,0.4 -7.921,0.643 -11.808,0.418 -7.29,-0.418 -14.125,-1.691 -21.494,-3.995 -6.477,-2.025 -12.383,-3.254 -21.059,-4.384 -5.672,-0.737 -10.676,-0.679 -14.02,0.17 -4.49,1.139 -7.1,3.666 -8.227,7.96 -0.531,2.018 -0.657,5.958 -0.277,8.813 0.538,4.061 1.454,6.133 3.695,8.35 2.58,2.555 6.261,3.942 11.906,4.489 v -0.001 c 2.403,0.232 13.402,0.048 16.168,-0.272 4.249,-0.49 7.062,-1.14 14.269,-3.299 5.495,-1.644 7.256,-2.076 10.492,-2.565 3.054,-0.462 8.706,-0.626 12.333,-0.358 5.91,0.437 8.939,1.081 15.773,3.35 5.742,1.908 7.603,2.357 10.84,2.628 6.067,0.507 15.086,-0.943 21.351,-3.431 4.391,-1.745 8.301,-4.385 11.989,-8.09 3.129,-3.149 4.045,-4.853 3.916,-7.313 -0.129,-2.517 -1.314,-4.547 -4.844,-8.28 -2.777,-2.939 -6.972,-7.684 -8.82,-9.984 -4.011,-4.987 -9.472,-14.57 -11.383,-19.979 -1.22,-3.45 -2.453,-5.886 -3.54,-6.988 -1.14,-1.159 -2.754,-1.951 -4.496,-2.204 -0.936,-0.137 -8.684,-0.18 -25.288,-0.142 -24.771,0.056 -24.861,0.054 -28.619,-0.672 -5.834,-1.126 -8.954,-3.222 -8.954,-6.012 0,-4.237 6.589,-6.682 17.324,-6.43 5.923,0.139 8.687,0.682 12.748,2.5 1.353,0.606 3.028,1.337 3.721,1.626 1.558,0.649 8.752,2.49 11.79,3.017 5.435,0.944 11.854,0.556 15.878,-0.959 7.819,-2.943 11.337,-8.143 11.337,-16.675 -0.012,-4.315 -0.708,-6.364 -4.319,-12.602 -1.58,-2.73 -1.882,-3.13 -3.714,-4.952 -2.693,-2.678 -5.672,-5.297 -6.817,-5.991 -1.492,-0.904 -3.393,-1.316 -6.565,-1.427 v 0 m -242.192,5.053 c -0.867,-0.037 -1.79,-0.031 -2.818,0.008 -7.239,0.273 -8.687,0.395 -9.66,0.817 -2.356,1.019 -4.326,4.551 -4.278,7.756 0.015,2.021 0.392,3.068 2.485,6.913 3.688,6.775 6.585,12.334 7.183,13.786 0.345,0.841 0.924,2.625 1.284,3.961 0.362,1.337 1.088,3.846 1.618,5.578 1.86,6.093 2.078,7.92 2.076,17.095 0,7.665 -0.1,8.927 -0.995,12.459 -0.633,2.493 -2.351,7.939 -2.855,9.058 -0.536,1.18 -3.172,5.193 -4.627,7.04 -3.941,5 -6.189,7.653 -7.052,8.319 -2.667,2.058 -5.077,5.506 -6,8.591 -0.468,1.566 -0.421,4.17 0.1,5.524 0.493,1.283 1.833,2.782 3.258,3.648 1.106,0.673 6.684,2.972 8.544,3.523 1.563,0.461 4.818,0.452 7.145,-0.022 0.99,-0.202 3.756,-1.006 6.148,-1.786 4.762,-1.554 7.703,-2.321 11.007,-2.872 4.617,-0.769 5.742,-0.824 16.29,-0.814 10.88,0.01 13.027,0.125 16.47,0.889 3.508,0.779 4.56,0.889 8.639,0.893 3.847,0.005 3.979,-0.005 4.639,-0.417 1.1,-0.682 1.279,-1.248 1.279,-3.537 -0.021,-2.306 -0.368,-3.939 -1.168,-5.535 -0.828,-1.643 -3.276,-4.823 -5.599,-7.267 -4.648,-4.89 -5.517,-6.334 -8.095,-13.456 -1.951,-5.39 -2.108,-6.049 -2.354,-10.101 -0.566,-9.194 -0.173,-12.578 2.323,-20.07 2.545,-7.644 4.161,-11.114 7.418,-15.928 4.858,-7.183 7.425,-15.238 6.687,-20.978 -0.645,-5.007 -3.184,-9.266 -6.57,-11.014 -1.857,-0.959 -3.254,-1.27 -5.581,-1.261 -2.078,0.01 -2.475,0.09 -6.576,1.352 -5.126,1.576 -8.373,1.98 -16.192,1.999 -7.841,0.021 -10.895,-0.436 -16.473,-2.463 -2.991,-1.087 -5.098,-1.577 -7.7,-1.688 v 0 m 139.873,11.86 c -0.313,-0.011 -0.63,-0.007 -0.95,0.013 -0.792,0.049 -2.25,0.295 -3.24,0.547 -1.856,0.472 -4.507,0.992 -13.936,2.733 -15.01,2.771 -17.197,2.972 -33.403,3.049 -10.304,0.048 -10.872,0.069 -12.384,0.434 -0.869,0.211 -2.177,0.672 -2.9,1.025 -4.872,2.375 -11.423,10.537 -14.293,17.809 -0.958,2.43 -2.793,8.048 -3.351,10.262 -0.941,3.749 -1.214,6.012 -1.31,10.798 -0.113,5.913 0.335,10.272 1.682,16.29 1.152,5.158 2.428,8.529 5.66,14.941 3.597,7.135 6.305,11.72 9.413,15.93 0.804,1.089 1.664,2.28 1.91,2.648 1.064,1.582 6.759,3.897 11.162,4.535 v 0 c 0.941,0.135 2.991,0.258 4.553,0.268 3.123,0.02 4.714,-0.216 6.596,-0.982 0.616,-0.251 2.187,-0.738 3.49,-1.085 1.504,-0.398 3.195,-1.011 4.622,-1.679 3.543,-1.658 6.017,-2.348 10.084,-2.802 5.347,-0.598 7.946,-0.151 13.529,2.321 1.256,0.556 2.916,1.169 3.69,1.363 1.9,0.479 5.584,0.77 8.821,0.695 l 2.666,-0.064 1.801,-0.964 c 4.871,-2.612 7.209,-5.081 7.837,-8.274 0.291,-1.486 0.122,-6.757 -0.263,-8.132 -0.416,-1.492 -2.438,-5.486 -4.07,-8.033 -1.791,-2.802 -2.342,-3.862 -4.064,-7.821 -2.482,-5.705 -2.698,-6.867 -2.542,-13.483 0.159,-6.699 0.938,-9.832 4.136,-16.653 4.085,-8.705 5.577,-14.506 5.577,-21.419 -0.014,-2.494 -0.07,-3.116 -0.469,-4.644 -1.519,-5.822 -5.36,-9.457 -10.058,-9.625 l 0.004,-0.001 M 122.617,178.37 c 2.173,-0.003 4.439,0.774 5.168,1.954 0.496,0.782 0.695,2.988 0.496,5.156 -0.482,5.247 -3.935,11.885 -6.989,13.439 -1.357,0.69 -2.74,1.09 -4.057,1.174 -3.337,0.214 -6.22,0.212 -7.56,0 -1.32,-0.208 -3.149,-0.625 -10.2614,-2.34 -1.3861,-0.335 -3.1675,-0.701 -3.9593,-0.817 -2.0944,-0.303 -2.4213,-0.735 -1.7245,-2.269 1.079,-2.374 4.3208,-4.523 14.4282,-9.557 3.407,-1.696 7.369,-3.783 8.805,-4.633 1.435,-0.851 3.043,-1.675 3.571,-1.831 0.644,-0.187 1.358,-0.274 2.083,-0.276 v 0 m 145.379,0.554 c 1.829,0.002 4.795,0.263 6.139,0.601 2.688,0.674 2.737,0.717 4.312,3.832 1.372,2.709 2.452,5.694 2.961,8.175 0.7,3.458 0.682,7.95 -0.045,8.665 -0.333,0.326 -6.819,3.129 -8.733,3.774 h 0.011 c -1.443,0.487 -1.862,0.457 -3.99,-0.298 -0.68,-0.241 -1.814,-0.519 -2.52,-0.616 -0.705,-0.097 -1.513,-0.27 -1.787,-0.384 -0.575,-0.231 -2.551,-2.88 -3.324,-4.456 -0.494,-1.001 -0.493,-1.023 -0.55,-5.429 -0.065,-5.012 0.071,-5.968 1.124,-8.06 1.1,-2.187 3.982,-5.444 5.056,-5.713 0.256,-0.064 0.738,-0.092 1.348,-0.091 h -0.002 m -12.162,72.919 c -4.57,-0.025 -9.048,0.502 -13.21,1.611 -18.236,4.86 -35.794,20.541 -35.794,31.966 0,3.646 -0.93,6.176 -3.306,9 -3.193,3.796 -3.284,4.347 -2.703,16.426 0.539,11.183 1.077,13.46 5.146,21.694 7.918,16.019 23.997,28.068 41.053,30.763 3.798,0.601 9.733,0.854 13.188,0.559 40.81,-3.467 64.225,-45.866 45.564,-82.503 -3.344,-6.564 -14.084,-17.782 -20.787,-21.711 -8.592,-5.035 -19.097,-7.753 -29.151,-7.805 v 0 m 129.173,6.306 c -2.42,0.014 -4.979,0.109 -7.673,0.287 l -5.265,19.154 c 4.887,-1.544 9.425,-2.463 13.615,-2.755 4.203,-0.331 7.954,-0.045 11.248,0.861 3.496,0.961 5.998,2.522 7.504,4.685 1.515,2.122 1.88,4.606 1.098,7.452 -0.514,1.871 -1.577,3.592 -3.188,5.162 -1.573,1.579 -3.807,3.106 -6.705,4.585 l -4.877,2.465 c -5.405,2.801 -9.138,5.318 -11.196,7.552 -2.045,2.194 -3.525,4.957 -4.441,8.291 l -0.822,2.989 22.021,6.05 0.755,-2.744 c 0.502,-1.831 1.386,-3.378 2.654,-4.649 1.28,-1.309 3.646,-2.847 7.104,-4.608 l 4.859,-2.405 c 4.818,-2.569 8.451,-5.2 10.897,-7.896 2.458,-2.736 4.235,-6.097 5.33,-10.081 2.134,-7.768 1.151,-14.38 -2.949,-19.836 -4.087,-5.497 -11.092,-9.607 -21.014,-12.333 -3.781,-1.04 -7.817,-1.713 -12.109,-2.018 -2.145,-0.151 -4.426,-0.221 -6.846,-0.208 v 0 m -187.13,0.307 c -4.019,-0.149 -7.8,1.45 -11.094,4.744 -2.1,2.1 -3.816,4.337 -3.816,4.975 0,2.167 2.991,1.171 6.462,-2.157 3.641,-3.486 7.668,-4.176 14.574,-2.5 5.722,1.392 5.35,-1.318 -0.517,-3.769 -1.903,-0.796 -3.78,-1.224 -5.609,-1.293 m -112.7792,1.428 c -4.8112,-0.053 -10.2513,0.987 -16.3177,3.122 -3.6992,1.303 -7.3965,3.051 -11.095,5.248 -3.6977,2.195 -7.6595,4.977 -11.885,8.343 l 6.5963,18.735 c 3.1338,-4.054 6.3392,-7.396 9.6158,-10.026 3.2633,-2.667 6.5062,-4.568 9.7288,-5.703 3.4209,-1.204 6.3661,-1.348 8.8358,-0.429 2.4553,0.879 4.1733,2.713 5.1538,5.498 0.6449,1.83 0.7511,3.848 0.3212,6.057 -0.3907,2.194 -1.3559,4.722 -2.8944,7.589 l -2.6003,4.805 c -2.8436,5.383 -4.4745,9.578 -4.8913,12.586 -0.4308,2.969 -0.0716,6.085 1.0769,9.347 l 1.0279,2.924 21.54,-7.582 -0.9445,-2.686 c -0.6306,-1.791 -0.7884,-3.567 -0.4711,-5.334 0.3037,-1.805 1.3747,-4.419 3.211,-7.837 l 2.623,-4.744 c 2.492,-4.857 3.976,-9.09 4.449,-12.699 0.46,-3.65 0,-7.425 -1.369,-11.323 -2.674,-7.598 -7.2509,-12.469 -13.7293,-14.616 -2.4347,-0.819 -5.0954,-1.243 -7.9819,-1.275 v 0 m 114.7052,6.697 c -1.691,-0.072 -3.552,0.214 -5.246,0.926 -3.887,1.635 -7.158,5.844 -5.686,7.315 1.3,1.301 2.207,0.933 4.605,-1.869 1.844,-2.154 3.232,-2.534 7.26,-1.995 4.089,0.55 4.913,0.312 4.595,-1.329 -0.35,-1.812 -2.706,-2.929 -5.528,-3.048 m 172.022,61.326 -5.969,21.712 22.021,6.052 5.969,-21.716 -22.021,-6.048 m -269.404,1.321 -21.5426,7.582 7.4793,21.244 21.5403,-7.586 -7.477,-21.24 m 142.641,63.342 h 4.972 v 17.566 l 5.26,-6.276 h 6.072 l -6.603,7.458 6.481,11.007 h -6.196 l -5.014,-8.887 v 8.887 h -4.972 V 392.57 m -14.831,1.997 h 2.61 l 9.617,27.758 h -4.93 l -2.16,-6.196 h -8.438 l -2.242,6.196 h -4.647 l 10.19,-27.758 m 40.458,8.804 c 4.32,0 6.929,1.998 6.929,5.298 v 8.194 c 0,2.038 0.369,4.076 0.653,5.462 h -4.477 c -0.242,-0.773 -0.283,-1.101 -0.488,-2.161 -0.897,1.304 -2.773,2.691 -5.137,2.691 -3.221,0 -5.381,-1.956 -5.381,-4.607 0,-1.63 0.327,-3.18 0.898,-3.874 0.978,-1.302 6.44,-2.811 8.967,-3.3 v -1.383 c 0,-1.998 -0.286,-2.653 -2.364,-2.653 -0.816,0 -2.362,0.042 -2.608,0.449 -0.246,0.449 -0.201,0.735 -0.248,1.428 l -3.993,0.365 c 0,-0.284 -0.049,-0.527 -0.049,-0.772 0,-1.019 0.162,-1.875 0.41,-2.773 0.205,-0.733 3.138,-2.364 6.888,-2.364 v 0 m -39.398,0.162 -2.854,8.398 h 5.422 l -2.568,-8.398 m 41.352,10.723 c -1.956,0.489 -3.016,0.813 -4.809,1.589 -0.195,0.571 -0.243,0.773 -0.243,1.386 0,1.059 0.243,1.955 1.467,1.955 0.896,0 2.162,-0.612 3.588,-2.201 l -0.003,-2.729 m -64.075,3.709 h 4.727 v 26.904 h -5.013 L 194.463,425.71 v 19.159 h -4.768 v -26.864 h 4.93 l 13.943,19.281 v -19.321 m 16.364,7.949 c 4.321,0 6.93,1.998 6.93,5.299 v 8.193 c 0,2.038 0.368,4.076 0.653,5.463 h -4.475 c -0.243,-0.775 -0.286,-1.102 -0.49,-2.162 -0.896,1.305 -2.774,2.691 -5.136,2.691 -3.221,0 -5.381,-1.957 -5.381,-4.607 0,-1.629 0.328,-3.18 0.898,-3.873 0.979,-1.305 6.438,-2.812 8.965,-3.301 v -1.386 c 0,-1.998 -0.283,-2.649 -2.361,-2.649 -0.815,0 -2.368,0.041 -2.61,0.448 -0.247,0.449 -0.198,0.735 -0.245,1.429 l -3.996,0.365 c 0,-0.287 -0.046,-0.531 -0.046,-0.776 0,-1.019 0.164,-1.872 0.407,-2.769 0.204,-0.734 3.138,-2.365 6.887,-2.365 v 0 m 22.47,0 c 3.424,0 5.138,1.182 6.035,2.854 1.914,-2.12 3.585,-2.854 5.706,-2.854 6.276,0 6.887,3.872 6.887,7.948 0,0.775 -0.047,1.549 -0.047,2.322 0,2.651 -0.043,4.038 -0.125,8.685 h -4.93 c 0.077,-4.687 0.124,-5.667 0.124,-8.154 0,-0.448 0.045,-1.102 0.045,-1.835 0,-0.529 -0.034,-1.1 -0.081,-1.67 -0.204,-2.364 -0.691,-3.017 -2.158,-3.017 -0.978,0 -1.995,0.204 -2.242,0.366 -0.205,0.124 -1.632,1.143 -2.487,2.243 v 12.067 h -4.892 V 433.21 c 0,-1.753 -0.407,-3.017 -2.12,-3.017 -0.978,0 -1.999,0.204 -2.24,0.366 -0.205,0.124 -1.633,1.143 -2.489,2.243 v 12.067 h -4.93 v -13.003 c 0,-1.631 -0.325,-4.729 -0.491,-5.463 h 4.403 l 0.489,2.16 c 1.589,-1.833 3.465,-2.649 5.543,-2.649 v 0 m 31.936,0 c 6.318,0 8.154,3.341 8.154,10.27 h -11.947 c 0.124,2.527 1.958,5.016 4.811,5.016 1.956,0 4.117,-0.817 6.401,-2.691 l 0.448,4.809 c -2.202,1.305 -4.198,2.08 -7.825,2.08 -5.176,0 -9.049,-3.669 -9.049,-9.701 0,-6.114 3.749,-9.783 9.007,-9.783 v 0 m 22.391,0 c 6.319,0 6.888,3.912 6.888,8.028 v 2.242 0 c -0.037,2.651 -0.081,4.038 -0.203,8.685 h -4.933 c 0.119,-5.381 0.167,-5.87 0.167,-9.376 0,-0.692 -0.001,-1.509 -0.08,-2.283 -0.164,-2.364 -0.653,-3.017 -2.12,-3.017 -0.774,0 -2.077,0.164 -2.323,0.408 -0.286,0.205 -1.631,1.183 -2.446,2.201 v 12.067 h -4.934 v -13.003 c 0,-1.631 -0.283,-4.445 -0.487,-5.463 h 4.403 l 0.488,2.16 c 1.632,-1.833 3.467,-2.649 5.585,-2.649 h -0.005 m 15.609,3.03 c 1.909,3.263 5.577,16.784 8.202,29.457 -0.165,0.067 -0.331,0.138 -0.497,0.203 -1.705,0.666 -5.591,2.073 -8.428,3.075 0.192,-21.104 0.433,-33.229 0.723,-32.735 v 0 m -38,0.638 c -0.611,0 -1.912,0.448 -2.078,0.571 -0.082,0.082 -1.303,1.264 -1.551,2.975 h 7.34 c -0.162,-2.12 -0.532,-3.546 -3.711,-3.546 v 0 m -52.445,7.214 c -1.958,0.489 -3.018,0.815 -4.811,1.589 -0.199,0.571 -0.248,0.775 -0.248,1.386 0,1.06 0.246,1.958 1.47,1.958 0.896,0 2.159,-0.611 3.586,-2.2 l 0.003,-2.733"
       style="fill:#ffec00;fill-opacity:1;fill-rule:nonzero;stroke:none"
       id=" path844"
       transform="translate(44.3565,44.3605)"
       inkscape:connector-curvature="0" />
  </g>
</svg>
